# AST/ASF file generated using VICON BodyLanguage
# -----------------------------------------------
:version 1.10
:name VICON
:units
  mass 1.0
  length 0.45
  angle deg
:documentation
   .ast/.asf automatically generated from VICON data using
   VICON BodyBuilder and BodyLanguage model FoxedUp or BRILLIANT.MOD
:root
   order TX TY TZ RX RY RZ
   axis XYZ
   position 0 0 0  
   orientation 0 0 0 
:bonedata
  begin
     id 1 
     name lhipjoint
     direction 0.589753 -0.68606 0.426044 
     length 2.54082 
     axis 0 0 0  XYZ
  end
  begin
     id 2 
     name lfemur
     direction 0.34202 -0.939693 0  
     length 7.04539  
     axis 0 0 20  XYZ
    dof rx ry rz
    limits (-160.0 20.0)
           (-70.0 70.0)
           (-60.0 70.0)
  end
  begin
     id 3 
     name ltibia
     direction 0.34202 -0.939693 0   
     length 7.83772   
     axis 0 0 20   XYZ
    dof rx
    limits (-10.0 170.0)
  end
  begin
     id 4 
     name lfoot
     direction 0.0596604 -0.163915 0.984669   
     length 2.39542   
     axis -90 7.62852e-016 20   XYZ
    dof rx rz
    limits (-45.0 90.0)
           (-70.0 20.0)
  end
  begin
     id 5 
     name ltoes
     direction 1.53514e-011 -4.21954e-011 1   
     length 1.2047   
     axis -90 7.62852e-016 20   XYZ
    dof rx
    limits (-90.0 20.0)
  end
  begin
     id 6 
     name rhipjoint
     direction -0.580585 -0.69168 0.429534   
     length 2.52018  
     axis 0 0 0  XYZ 
  end
  begin
     id 7 
     name rfemur
     direction -0.34202 -0.939693 0   
     length 7.0101   
     axis 0 0 -20   XYZ
    dof rx ry rz
    limits (-160.0 20.0)
           (-70.0 70.0)
           (-70.0 60.0)
  end
  begin
     id 8 
     name rtibia
     direction -0.34202 -0.939693 0   
     length 7.70628   
     axis 0 0 -20   XYZ
    dof rx
    limits (-10.0 170.0)
 end
 begin
     id 9 
     name rfoot
     direction -0.0696237 -0.19129 0.979061   
     length 2.52466  
     axis -90 -7.62852e-016 -20   XYZ
    dof rx rz
    limits (-45.0 90.0)
           (-20.0 70.0)
  end
  begin
     id 10 
     name rtoes
     direction -1.53519e-011 -4.21793e-011 1   
     length 1.266   
     axis -90 -7.62852e-016 -20   XYZ
    dof rx
    limits (-90.0 20.0)
  end
  begin
     id 11 
     name lowerback
     direction 0.00381965 0.995707 -0.0924856   
     length 2.20825   
     axis 0 0 0   XYZ
    dof rx ry rz
    limits (-20.0 45.0)
           (-30.0 30.0)
           (-30.0 30.0)
  end
  begin
     id 12 
     name upperback
     direction -0.0139043 0.999634 -0.0231929   
     length 2.21517   
     axis 0 0 0   XYZ
    dof rx ry rz
    limits (-20.0 45.0)
           (-30.0 30.0)
           (-30.0 30.0)
  end
  begin
     id 13 
     name thorax
     direction -0.0143933 0.999691 0.0202892   
     length 2.22911   
     axis 0 0 0   XYZ
    dof rx ry rz
    limits (-20.0 45.0)
           (-30.0 30.0)
           (-30.0 30.0)
  end
  begin
     id 14 
     name lowerneck
     direction -0.0251153 0.981819 0.188153   
     length 1.61782   
     axis 0 0 0   XYZ
    dof rx ry rz
    limits (-20.0 45.0)
           (-30.0 30.0)
           (-30.0 30.0)
  end
  begin
     id 15 
     name upperneck
     direction 0.0563891 0.969357 -0.239095   
     length 1.64526   
     axis 0 0 0   XYZ
    dof rx ry rz
    limits (-20.0 45.0)
           (-30.0 30.0)
           (-30.0 30.0)
  end
  begin
     id 16
     name head
     direction 0.0208328 0.99459 -0.101773  
     length 1.67436  
     axis 0 0 0   XYZ
    dof rx ry rz
    limits (-20.0 45.0)
           (-30.0 30.0)
           (-30.0 30.0)
  end
  begin
     id 17 
     name lclavicle
     direction 0.917689 0.397224 0.00772059  
     length 3.31102  
     axis 0 0 0   XYZ
    dof ry rz
    limits (-20.0 10.0)
           (0.0 20.0)
  end
  begin
     id 18 
     name lhumerus
     direction 1 -4.4896e-011 2.32308e-027   
     length 5.25537   
     axis 180 -30 -90   XYZ
    dof rx ry rz
    limits (-60.0 90.0)
           (-90.0 90.0)
           (-90.0 90.0)
  end
  begin
     id 19
     name lradius
     direction 1 -4.49005e-011 -2.04271e-027   
     length 3.38855   
     axis 180 -30 -90   XYZ
    dof rx
    limits (-10.0 170.0)
  end
  begin
     id 20
     name lwrist
     direction 1 -4.48892e-011 2.56952e-028   
     length 1.69428   
     axis -5.12785e-016 90 90   XYZ
    dof ry
    limits (-180.0 0.0)
 end
  begin
     id 21 
     name lhand
     direction 1 -4.48966e-011 5.13905e-028   
     length 0.614516   
     axis -3.27915e-016 90 90   XYZ
    dof rx rz
    limits (-90.0 90.0)
           (-45.0 45.0)
  end
  begin
     id 22 
     name lfingers
     direction 1 -4.48979e-011 1.02781e-027   
     length 0.495439   
     axis -6.5583e-016 90 90   XYZ
    dof rx
    limits (0.0 90.0)
  end
  begin
     id 23
     name lthumb
     direction 0.707107 -6.35001e-011 0.707107   
     length 0.711354   
     axis -90 45 2.85299e-015   XYZ
    dof rx rz
    limits (-45.0 45.0)
           (-45.0 45.0)
  end
  begin
     id 24 
     name rclavicle
     direction -0.938556 0.342765 -0.0403177   
     length 3.27019  
     axis 0 0 0   XYZ 
    dof ry rz
    limits (-10.0 20.0)
           (-20.0 0.0)
  end
  begin
     id 25 
     name rhumerus
     direction -1 -4.48966e-011 2.52291e-027  
     length 5.38183   
     axis 180 30 90   XYZ
    dof rx ry rz
    limits (-90.0 60.0)
           (-90.0 90.0)
           (-90.0 90.0)
  end
  begin
     id 26 
     name rradius
     direction -1 -4.4896e-011 1.5797e-027   
     length 3.16988   
     axis 180 30 90   XYZ
    dof rx
    limits (-10.0 170.0)
  end
  begin
     id 27 
     name rwrist
     direction -1 -4.48947e-011 2.56952e-028   
     length 1.58494   
     axis -5.12785e-016 -90 -90   XYZ
    dof ry
    limits (-180.0 0.0)
  end
  begin
     id 28
     name rhand
     direction -1 -4.49098e-011 5.13905e-028   
     length 0.637679   
     axis -3.27915e-016 -90 -90   XYZ
    dof rx rz
    limits (-90.0 90.0)
           (-45.0 45.0)
  end
  begin
     id 29
     name rfingers
     direction -1 -4.49026e-011 1.02781e-027   
     length 0.514113   
     axis -6.5583e-016 -90 -90   XYZ
    dof rx
    limits (0.0 90.0)
  end
  begin
     id 30
     name rthumb
     direction -0.707107 -6.3491e-011 0.707107   
     length 0.738167   
     axis -90 -45 -2.85299e-015   XYZ
    dof rx rz
    limits (-45.0 45.0)
           (-45.0 45.0)
  end
:hierarchy
  begin
    root lhipjoint rhipjoint lowerback
    lhipjoint lfemur
    lfemur ltibia
    ltibia lfoot
    lfoot ltoes
    rhipjoint rfemur
    rfemur rtibia
    rtibia rfoot
    rfoot rtoes
    lowerback upperback
    upperback thorax
    thorax lowerneck lclavicle rclavicle
    lowerneck upperneck
    upperneck head
    lclavicle lhumerus
    lhumerus lradius
    lradius lwrist
    lwrist lhand lthumb
    lhand lfingers
    rclavicle rhumerus
    rhumerus rradius
    rradius rwrist
    rwrist rhand rthumb
    rhand rfingers
  end

#!OML:ASF H:\Swim\Project 1\Capture day 1\Session 1\swimmer.ASF
:FULLY-SPECIFIED
:DEGREES
1464
root 5.80694 9.61657 13.756 76.942 0.0414904 -2.32659
lowerback 8.50748 0.109579 -0.616414
upperback -9.23782 -0.0896429 -1.06742
thorax -15.0383 -0.053299 -0.827043
lowerneck -28.3715 -6.36355 -7.24152
upperneck -10.1864 -6.28333 14.5695
head 1.96334 -2.37138 5.21933
rclavicle 7.15625e-015 -6.36111e-015
rhumerus 9.33104 51.9354 -33.8698
rradius 135.455
rwrist -40.2293
rhand -39.0106 -0.178954
rfingers 7.12502
rthumb -12.0139 -29.8141
lclavicle 7.15625e-015 -6.36111e-015
lhumerus 10.3632 -50.2544 30.2973
lradius 135.105
lwrist 26.3585
lhand -27.4595 -342.229
lfingers 7.12502
lthumb -0.863847 407.749
rfemur -7.99931 15.2237 19.145
rtibia 36.6397
rfoot -18.0785 -11.7077
rtoes -16.0624
lfemur -11.0573 -3.13352 -20.9038
ltibia 36.5403
lfoot -2.56667 3.51676
ltoes 3.36273
1465
root 5.80674 9.6282 13.7615 76.9991 0.041258 -2.32776
lowerback 8.17607 0.132489 -0.586646
upperback -9.47406 -0.053229 -1.08039
thorax -15.112 -0.0404031 -0.866851
lowerneck -28.5504 -6.44642 -7.24196
upperneck -10.0286 -6.39842 14.5968
head 2.04691 -2.41541 5.21238
rclavicle 4.37326e-015 3.18055e-015
rhumerus 10.0578 52.5134 -34.6674
rradius 136.173
rwrist -39.8801
rhand -39.6234 -0.452512
rfingers 7.12502
rthumb -12.6047 -30.0522
lclavicle 4.37326e-015 3.18055e-015
lhumerus 11.7079 -51.2684 30.1687
lradius 135.915
lwrist 26.7573
lhand -28.4036 -341.929
lfingers 7.12502
lthumb -1.77572 408.043
rfemur -7.77307 15.0735 19.1326
rtibia 36.6189
rfoot -18.2788 -11.5397
rtoes -16.1038
lfemur -10.8782 -2.6419 -20.9219
ltibia 36.5769
lfoot -2.25452 3.27991
ltoes 3.27022
1466
root 5.80682 9.64186 13.7676 77.0528 0.0468368 -2.33229
lowerback 7.82193 0.154366 -0.552685
upperback -9.70924 -0.0165848 -1.08753
thorax -15.1699 -0.0274444 -0.902153
lowerneck -28.6724 -6.522 -7.26681
upperneck -9.86469 -6.50062 14.6595
head 2.12761 -2.45266 5.2223
rclavicle -5.56597e-015 1.78906e-015
rhumerus 10.8374 53.1264 -35.3954
rradius 136.809
rwrist -39.5623
rhand -40.2525 -0.415273
rfingers 7.12502
rthumb -13.2112 -29.9767
lclavicle -5.56597e-015 1.78906e-015
lhumerus 13.0297 -52.2539 30.0367
lradius 136.637
lwrist 26.9
lhand -29.208 -341.631
lfingers 7.12502
lthumb -2.55263 408.333
rfemur -7.50196 14.7462 19.0907
rtibia 36.5955
rfoot -18.3812 -11.2973
rtoes -16.2348
lfemur -10.6436 -2.0326 -20.9127
ltibia 36.6179
lfoot -1.86181 3.01692
ltoes 3.26842
1467
root 5.80718 9.65733 13.7744 77.103 0.0596411 -2.34135
lowerback 7.44764 0.176849 -0.510915
upperback -9.94451 0.0230244 -1.08877
thorax -15.215 -0.0135106 -0.935474
lowerneck -28.7803 -6.60047 -7.3025
upperneck -9.64961 -6.6098 14.7333
head 2.22448 -2.49153 5.23597
rclavicle -3.57812e-015 -5.1684e-015
rhumerus 11.6782 53.7431 -36.0486
rradius 137.377
rwrist -39.2618
rhand -40.965 -0.245044
rfingers 7.12502
rthumb -13.8979 -29.7606
lclavicle -3.57812e-015 -5.1684e-015
lhumerus 14.3205 -53.1818 29.8995
lradius 137.29
lwrist 26.9596
lhand -29.9787 -341.313
lfingers 7.12502
lthumb -3.2969 408.641
rfemur -7.18958 14.2429 19.0213
rtibia 36.5763
rfoot -18.3121 -11.007
rtoes -16.3209
lfemur -10.3542 -1.30485 -20.873
ltibia 36.6669
lfoot -1.38689 2.73206
ltoes 3.36483
1468
root 5.80767 9.67464 13.7812 77.1446 0.0790379 -2.35486
lowerback 7.05691 0.201893 -0.470181
upperback -10.1749 0.0680024 -1.07637
thorax -15.2435 0.0041851 -0.953559
lowerneck -28.8329 -6.66273 -7.37133
upperneck -9.42666 -6.69078 14.8006
head 2.31504 -2.51725 5.25625
rclavicle 1.98785e-015 -4.96962e-015
rhumerus 12.5948 54.3431 -36.5961
rradius 137.886
rwrist -38.9996
rhand -41.8167 0.0761771
rfingers 7.12502
rthumb -14.7185 -29.3813
lclavicle 1.98785e-015 -4.96962e-015
lhumerus 15.5676 -53.9639 29.7921
lradius 137.903
lwrist 27.1426
lhand -30.7267 -340.94
lfingers 7.12502
lthumb -4.01922 409.001
rfemur -6.83439 13.5805 18.9276
rtibia 36.5711
rfoot -18.1091 -10.6873
rtoes -16.3903
lfemur -10.0046 -0.496868 -20.8057
ltibia 36.7274
lfoot -0.811264 2.45335
ltoes 3.8103
1469
root 5.80825 9.69343 13.7882 77.182 0.101506 -2.37175
lowerback 6.63481 0.23085 -0.432396
upperback -10.3931 0.120042 -1.05158
thorax -15.2367 0.0267275 -0.956724
lowerneck -28.811 -6.69876 -7.48181
upperneck -9.22614 -6.72512 14.8521
head 2.38524 -2.52252 5.28436
rclavicle 2.78299e-015 -7.55382e-015
rhumerus 13.5664 54.8983 -37.0539
rradius 138.342
rwrist -38.7934
rhand -42.7696 0.514581
rfingers 7.12502
rthumb -15.6365 -28.8735
lclavicle 2.78299e-015 -7.55382e-015
lhumerus 16.781 -54.5444 29.7207
lradius 138.476
lwrist 27.4771
lhand -31.5235 -340.493
lfingers 7.12502
lthumb -4.7886 409.433
rfemur -6.44318 12.7692 18.8058
rtibia 36.5878
rfoot -17.8123 -10.3562
rtoes -16.4932
lfemur -9.60402 0.370364 -20.7157
ltibia 36.8068
lfoot -0.171352 2.19692
ltoes 4.42777
1470
root 5.80889 9.71374 13.7949 77.2172 0.114726 -2.38776
lowerback 6.18315 0.26272 -0.409568
upperback -10.5966 0.17556 -1.01769
thorax -15.1929 0.0536095 -0.941083
lowerneck -28.763 -6.7127 -7.6122
upperneck -9.01291 -6.72576 14.8727
head 2.45117 -2.51239 5.30974
rclavicle -4.37326e-015 -9.93923e-015
rhumerus 14.5575 55.3448 -37.462
rradius 138.752
rwrist -38.6459
rhand -43.7878 0.945523
rfingers 7.12502
rthumb -16.6169 -28.3631
lclavicle -4.37326e-015 -9.93923e-015
lhumerus 17.9527 -54.8899 29.7067
lradius 138.999
lwrist 27.8959
lhand -32.3854 -339.918
lfingers 7.12502
lthumb -5.62084 409.987
rfemur -6.0214 11.8254 18.6421
rtibia 36.6344
rfoot -17.4541 -10.0082
rtoes -16.5503
lfemur -9.16068 1.2747 -20.6179
ltibia 36.9137
lfoot 0.510912 1.97267
ltoes 5.18361
1471
root 5.80952 9.73546 13.8009 77.2513 0.118021 -2.40129
lowerback 5.7015 0.295984 -0.402751
upperback -10.7825 0.232153 -0.976545
thorax -15.1081 0.0837208 -0.907549
lowerneck -28.7618 -6.71723 -7.72624
upperneck -8.72307 -6.72293 14.8456
head 2.54222 -2.49922 5.31649
rclavicle -1.19271e-014 8.34896e-015
rhumerus 15.5012 55.6282 -37.8919
rradius 139.125
rwrist -38.5835
rhand -44.8191 1.31893
rfingers 7.12502
rthumb -17.6095 -27.9036
lclavicle -1.19271e-014 8.34896e-015
lhumerus 19.0641 -54.9684 29.7861
lradius 139.449
lwrist 28.2386
lhand -33.2386 -339.127
lfingers 7.12502
lthumb -6.44452 410.755
rfemur -5.57004 10.7765 18.4374
rtibia 36.7143
rfoot -17.1594 -9.66074
rtoes -16.8389
lfemur -8.68543 2.21577 -20.5107
ltibia 37.061
lfoot 1.18984 1.77256
ltoes 5.89236
1472
root 5.81009 9.75863 13.8058 77.2856 0.100889 -2.40758
lowerback 5.20074 0.329089 -0.417394
upperback -10.9567 0.285597 -0.938044
thorax -14.9973 0.114837 -0.863518
lowerneck -28.7618 -6.70554 -7.83972
upperneck -8.38034 -6.70334 14.8063
head 2.64727 -2.47693 5.32072
rclavicle 3.18055e-015 -1.59028e-015
rhumerus 16.2993 55.7196 -38.4477
rradius 139.474
rwrist -38.659
rhand -45.8534 1.6606
rfingers 7.12502
rthumb -18.6046 -27.4697
lclavicle 3.18055e-015 -1.59028e-015
lhumerus 20.1069 -54.8251 29.9572
lradius 139.819
lwrist 28.3938
lhand -34.1346 -338.068
lfingers 7.12502
lthumb -7.30946 411.786
rfemur -5.0905 9.66406 18.1835
rtibia 36.8314
rfoot -16.9538 -9.32004
rtoes -17.3043
lfemur -8.18825 3.19463 -20.4034
ltibia 37.2612
lfoot 1.8499 1.58727
ltoes 6.49626
1473
root 5.81008 9.78321 13.8096 77.324 0.0711338 -2.4088
lowerback 4.68385 0.361532 -0.452923
upperback -11.1223 0.335458 -0.902687
thorax -14.866 0.146608 -0.809919
lowerneck -28.9885 -6.73104 -7.85867
upperneck -7.76438 -6.77511 14.6975
head 2.86671 -2.4898 5.27224
rclavicle 3.57812e-015 4.37326e-015
rhumerus 16.903 55.6461 -39.1649
rradius 139.812
rwrist -39.0114
rhand -46.9007 2.3035
rfingers 7.12502
rthumb -19.6118 -26.7273
lclavicle 3.57812e-015 4.37326e-015
lhumerus 21.0854 -54.4759 30.2186
lradius 140.1
lwrist 28.3256
lhand -35.0079 -336.698
lfingers 7.12502
lthumb -8.15244 413.125
rfemur -4.5874 8.54329 17.8999
rtibia 36.9879
rfoot -16.8367 -9.00871
rtoes -17.889
lfemur -7.67979 4.21778 -20.2803
ltibia 37.5259
lfoot 2.61221 1.40316
ltoes 7.52759
